<svg width="1261" height="72" viewBox="0 0 1261 72" fill="none" xmlns="http://www.w3.org/2000/svg">
<path d="M897.368 54.84C898.488 54.84 899.308 55.056 899.828 55.488C900.356 55.92 900.62 56.58 900.62 57.468C900.62 58.356 900.356 59.016 899.828 59.448C899.308 59.88 898.488 60.096 897.368 60.096H896.036V63H894.14V54.84H897.368ZM897.368 58.764C897.84 58.756 898.184 58.652 898.4 58.452C898.616 58.244 898.724 57.916 898.724 57.468C898.724 57.028 898.616 56.704 898.4 56.496C898.184 56.28 897.84 56.172 897.368 56.172H896.036V58.764H897.368ZM906.08 57.888C905.672 57.888 905.296 57.92 904.952 57.984C904.616 58.048 904.24 58.176 903.824 58.368V63H901.988V56.28H903.356L903.644 57.096C904.06 56.744 904.46 56.496 904.844 56.352C905.236 56.208 905.648 56.136 906.08 56.136V57.888ZM908.362 55.104C908.066 55.104 907.814 55 907.606 54.792C907.398 54.584 907.294 54.332 907.294 54.036C907.294 53.74 907.398 53.488 907.606 53.28C907.814 53.072 908.066 52.968 908.362 52.968C908.658 52.968 908.91 53.072 909.118 53.28C909.334 53.488 909.442 53.74 909.442 54.036C909.442 54.332 909.334 54.584 909.118 54.792C908.91 55 908.658 55.104 908.362 55.104ZM907.45 56.28H909.286V63H907.45V56.28ZM917.389 56.28L914.797 63.072H913.009L910.417 56.28H912.289L913.921 61.212L915.541 56.28H917.389ZM924.62 62.94C924.164 63.044 923.748 63.096 923.372 63.096C922.628 63.096 922.152 62.84 921.944 62.328C921.6 62.584 921.256 62.78 920.912 62.916C920.576 63.044 920.216 63.108 919.832 63.108C919.48 63.108 919.164 63.036 918.884 62.892C918.604 62.748 918.384 62.552 918.224 62.304C918.072 62.048 917.996 61.768 917.996 61.464C917.996 60.984 918.12 60.6 918.368 60.312C918.616 60.016 918.956 59.78 919.388 59.604C919.82 59.42 920.46 59.208 921.308 58.968L921.812 58.824V58.668C921.812 57.876 921.468 57.48 920.78 57.48C920.436 57.48 920.08 57.556 919.712 57.708C919.344 57.852 918.924 58.1 918.452 58.452L918.044 57.204C919.148 56.484 920.252 56.124 921.356 56.124C922.1 56.124 922.664 56.328 923.048 56.736C923.44 57.136 923.636 57.816 923.636 58.776V61.272C923.636 61.448 923.668 61.576 923.732 61.656C923.804 61.728 923.92 61.764 924.08 61.764C924.216 61.764 924.372 61.74 924.548 61.692L924.62 62.94ZM919.832 61.236C919.832 61.604 920.036 61.788 920.444 61.788C920.652 61.788 920.864 61.744 921.08 61.656C921.296 61.56 921.54 61.424 921.812 61.248V59.868L921.5 59.976C920.868 60.192 920.432 60.392 920.192 60.576C919.952 60.752 919.832 60.972 919.832 61.236ZM928.659 63.156C927.891 63.156 927.247 63.004 926.727 62.7C926.215 62.388 925.831 61.972 925.575 61.452C925.327 60.924 925.203 60.324 925.203 59.652C925.203 59.004 925.331 58.416 925.587 57.888C925.843 57.352 926.243 56.924 926.787 56.604C927.331 56.284 928.015 56.124 928.839 56.124C929.175 56.124 929.523 56.168 929.883 56.256C930.243 56.344 930.531 56.46 930.747 56.604L930.351 57.876C929.871 57.596 929.367 57.456 928.839 57.456C928.271 57.456 927.831 57.648 927.519 58.032C927.215 58.408 927.063 58.944 927.063 59.64C927.063 60.336 927.203 60.876 927.483 61.26C927.763 61.644 928.155 61.836 928.659 61.836C928.995 61.836 929.299 61.78 929.571 61.668C929.851 61.548 930.151 61.38 930.471 61.164L930.999 62.328C930.711 62.568 930.363 62.768 929.955 62.928C929.555 63.08 929.123 63.156 928.659 63.156ZM938.474 56.28L935.606 63.888C935.334 64.648 934.958 65.196 934.478 65.532C934.006 65.868 933.43 66.036 932.75 66.036C932.526 66.036 932.286 66.016 932.03 65.976C931.782 65.944 931.566 65.892 931.382 65.82L931.514 64.464C931.914 64.584 932.258 64.644 932.546 64.644C932.93 64.644 933.258 64.552 933.53 64.368C933.802 64.184 934.042 63.88 934.25 63.456L931.478 56.28H933.35L935.018 61.224L936.626 56.28H938.474ZM945.942 54.84C947.062 54.84 947.882 55.056 948.402 55.488C948.93 55.92 949.194 56.58 949.194 57.468C949.194 58.356 948.93 59.016 948.402 59.448C947.882 59.88 947.062 60.096 945.942 60.096H944.61V63H942.714V54.84H945.942ZM945.942 58.764C946.414 58.756 946.758 58.652 946.974 58.452C947.19 58.244 947.298 57.916 947.298 57.468C947.298 57.028 947.19 56.704 946.974 56.496C946.758 56.28 946.414 56.172 945.942 56.172H944.61V58.764H945.942ZM953.515 63.156C952.763 63.156 952.127 63.004 951.607 62.7C951.087 62.396 950.699 61.98 950.443 61.452C950.187 60.924 950.059 60.324 950.059 59.652C950.059 58.964 950.187 58.356 950.443 57.828C950.699 57.292 951.087 56.876 951.607 56.58C952.127 56.276 952.763 56.124 953.515 56.124C954.267 56.124 954.903 56.284 955.423 56.604C955.943 56.924 956.331 57.352 956.587 57.888C956.851 58.416 956.983 58.996 956.983 59.628C956.983 60.26 956.851 60.844 956.587 61.38C956.331 61.916 955.943 62.348 955.423 62.676C954.903 62.996 954.267 63.156 953.515 63.156ZM953.527 61.836C954.591 61.836 955.123 61.104 955.123 59.64C955.123 58.184 954.591 57.456 953.527 57.456C952.455 57.456 951.919 58.184 951.919 59.64C951.919 61.104 952.455 61.836 953.527 61.836ZM958.485 53.4H960.321V63H958.485V53.4ZM963.252 55.104C962.956 55.104 962.704 55 962.496 54.792C962.288 54.584 962.184 54.332 962.184 54.036C962.184 53.74 962.288 53.488 962.496 53.28C962.704 53.072 962.956 52.968 963.252 52.968C963.548 52.968 963.8 53.072 964.008 53.28C964.224 53.488 964.332 53.74 964.332 54.036C964.332 54.332 964.224 54.584 964.008 54.792C963.8 55 963.548 55.104 963.252 55.104ZM962.34 56.28H964.176V63H962.34V56.28ZM969.159 63.156C968.391 63.156 967.747 63.004 967.227 62.7C966.715 62.388 966.331 61.972 966.075 61.452C965.827 60.924 965.703 60.324 965.703 59.652C965.703 59.004 965.831 58.416 966.087 57.888C966.343 57.352 966.743 56.924 967.287 56.604C967.831 56.284 968.515 56.124 969.339 56.124C969.675 56.124 970.023 56.168 970.383 56.256C970.743 56.344 971.031 56.46 971.247 56.604L970.851 57.876C970.371 57.596 969.867 57.456 969.339 57.456C968.771 57.456 968.331 57.648 968.019 58.032C967.715 58.408 967.563 58.944 967.563 59.64C967.563 60.336 967.703 60.876 967.983 61.26C968.263 61.644 968.655 61.836 969.159 61.836C969.495 61.836 969.799 61.78 970.071 61.668C970.351 61.548 970.651 61.38 970.971 61.164L971.499 62.328C971.211 62.568 970.863 62.768 970.455 62.928C970.055 63.08 969.623 63.156 969.159 63.156ZM978.974 56.28L976.106 63.888C975.834 64.648 975.458 65.196 974.978 65.532C974.506 65.868 973.93 66.036 973.25 66.036C973.026 66.036 972.786 66.016 972.53 65.976C972.282 65.944 972.066 65.892 971.882 65.82L972.014 64.464C972.414 64.584 972.758 64.644 973.046 64.644C973.43 64.644 973.758 64.552 974.03 64.368C974.302 64.184 974.542 63.88 974.75 63.456L971.978 56.28H973.85L975.518 61.224L977.126 56.28H978.974Z" fill="white"/>
<path d="M1046.89 56.196H1044.52V63H1042.63V56.196H1040.29V54.84H1046.89V56.196ZM1051.12 61.836C1051.5 61.836 1051.86 61.764 1052.18 61.62C1052.5 61.476 1052.84 61.264 1053.21 60.984L1053.74 62.148C1053.34 62.492 1052.93 62.748 1052.51 62.916C1052.1 63.076 1051.64 63.156 1051.12 63.156C1050.35 63.156 1049.71 63.004 1049.19 62.7C1048.68 62.388 1048.29 61.972 1048.04 61.452C1047.79 60.924 1047.66 60.324 1047.66 59.652C1047.66 58.964 1047.79 58.356 1048.05 57.828C1048.3 57.292 1048.69 56.876 1049.2 56.58C1049.72 56.276 1050.36 56.124 1051.12 56.124C1051.99 56.124 1052.66 56.364 1053.14 56.844C1053.62 57.324 1053.86 58 1053.87 58.872C1053.87 59.192 1053.82 59.516 1053.72 59.844H1049.48C1049.5 60.5 1049.64 60.996 1049.91 61.332C1050.17 61.668 1050.58 61.836 1051.12 61.836ZM1051.01 57.36C1050.25 57.36 1049.77 57.788 1049.57 58.644H1052.08C1052.09 58.604 1052.09 58.548 1052.09 58.476C1052.08 58.116 1051.98 57.84 1051.78 57.648C1051.59 57.456 1051.33 57.36 1051.01 57.36ZM1059.47 57.888C1059.06 57.888 1058.68 57.92 1058.34 57.984C1058 58.048 1057.63 58.176 1057.21 58.368V63H1055.38V56.28H1056.74L1057.03 57.096C1057.45 56.744 1057.85 56.496 1058.23 56.352C1058.62 56.208 1059.04 56.136 1059.47 56.136V57.888ZM1068.82 56.124C1069.65 56.124 1070.22 56.348 1070.54 56.796C1070.86 57.244 1071.02 57.888 1071.02 58.728V63H1069.19V58.944C1069.19 58.4 1069.12 58.02 1068.98 57.804C1068.85 57.588 1068.6 57.48 1068.23 57.48C1067.79 57.48 1067.32 57.656 1066.81 58.008L1066.79 57.96C1066.82 58.176 1066.84 58.432 1066.84 58.728V63H1065V58.944C1065 58.4 1064.93 58.02 1064.8 57.804C1064.66 57.588 1064.41 57.48 1064.04 57.48C1063.6 57.48 1063.14 57.648 1062.66 57.984V63H1060.82V56.28H1062.19L1062.4 56.868C1063.17 56.372 1063.92 56.124 1064.63 56.124C1065.51 56.124 1066.12 56.396 1066.46 56.94C1067.27 56.396 1068.06 56.124 1068.82 56.124ZM1074.86 63.156C1074.41 63.156 1073.98 63.112 1073.56 63.024C1073.15 62.936 1072.78 62.82 1072.47 62.676L1072.84 61.404C1073.56 61.692 1074.22 61.836 1074.84 61.836C1075.2 61.836 1075.5 61.78 1075.72 61.668C1075.96 61.548 1076.07 61.368 1076.07 61.128C1076.07 60.928 1075.96 60.764 1075.75 60.636C1075.54 60.508 1075.21 60.364 1074.75 60.204C1074.3 60.044 1073.94 59.896 1073.66 59.76C1073.38 59.616 1073.14 59.424 1072.93 59.184C1072.73 58.936 1072.63 58.632 1072.63 58.272C1072.63 57.568 1072.88 57.036 1073.4 56.676C1073.91 56.308 1074.6 56.124 1075.48 56.124C1075.85 56.124 1076.22 56.164 1076.6 56.244C1076.98 56.316 1077.31 56.42 1077.6 56.556L1077.21 57.84C1076.64 57.584 1076.08 57.456 1075.53 57.456C1075.19 57.456 1074.92 57.508 1074.73 57.612C1074.54 57.708 1074.44 57.856 1074.44 58.056C1074.44 58.256 1074.54 58.416 1074.74 58.536C1074.94 58.648 1075.26 58.776 1075.69 58.92C1076.14 59.064 1076.51 59.208 1076.8 59.352C1077.1 59.496 1077.35 59.704 1077.56 59.976C1077.78 60.248 1077.88 60.592 1077.88 61.008C1077.88 61.68 1077.62 62.208 1077.1 62.592C1076.58 62.968 1075.84 63.156 1074.86 63.156Z" fill="white"/>
<path d="M1137.91 63.18C1137.12 63.18 1136.41 62.988 1135.76 62.604C1135.11 62.22 1134.6 61.7 1134.22 61.044C1133.86 60.388 1133.67 59.668 1133.67 58.884C1133.67 58.124 1133.86 57.424 1134.22 56.784C1134.6 56.136 1135.11 55.624 1135.76 55.248C1136.41 54.872 1137.12 54.684 1137.91 54.684C1138.7 54.684 1139.42 54.872 1140.07 55.248C1140.72 55.624 1141.24 56.136 1141.6 56.784C1141.98 57.424 1142.17 58.124 1142.17 58.884C1142.17 59.668 1141.98 60.388 1141.6 61.044C1141.24 61.7 1140.72 62.22 1140.07 62.604C1139.42 62.988 1138.7 63.18 1137.91 63.18ZM1137.91 62.484C1138.55 62.484 1139.13 62.324 1139.65 62.004C1140.17 61.684 1140.58 61.248 1140.87 60.696C1141.18 60.144 1141.33 59.54 1141.33 58.884C1141.33 58.244 1141.18 57.656 1140.87 57.12C1140.58 56.584 1140.17 56.16 1139.65 55.848C1139.13 55.536 1138.55 55.38 1137.91 55.38C1137.27 55.38 1136.69 55.536 1136.17 55.848C1135.65 56.16 1135.24 56.584 1134.93 57.12C1134.64 57.656 1134.49 58.244 1134.49 58.884C1134.49 59.54 1134.64 60.144 1134.93 60.696C1135.24 61.248 1135.65 61.684 1136.17 62.004C1136.69 62.324 1137.27 62.484 1137.91 62.484ZM1137.99 61.104C1137.55 61.104 1137.17 61.004 1136.84 60.804C1136.51 60.604 1136.26 60.336 1136.1 60C1135.93 59.664 1135.84 59.304 1135.84 58.92C1135.84 58.536 1135.93 58.18 1136.11 57.852C1136.28 57.524 1136.54 57.26 1136.88 57.06C1137.21 56.86 1137.61 56.76 1138.06 56.76C1138.35 56.76 1138.62 56.812 1138.88 56.916C1139.14 57.012 1139.35 57.144 1139.53 57.312L1139.18 57.84C1139.06 57.728 1138.9 57.636 1138.71 57.564C1138.52 57.492 1138.32 57.456 1138.12 57.456C1137.69 57.456 1137.34 57.596 1137.07 57.876C1136.8 58.156 1136.67 58.504 1136.67 58.92C1136.67 59.352 1136.8 59.712 1137.06 60C1137.31 60.28 1137.64 60.42 1138.05 60.42C1138.3 60.42 1138.52 60.372 1138.72 60.276C1138.93 60.18 1139.1 60.056 1139.24 59.904L1139.59 60.432C1139.4 60.632 1139.16 60.796 1138.89 60.924C1138.62 61.044 1138.32 61.104 1137.99 61.104ZM1146.36 62.364L1148.42 60.36C1149.13 59.68 1149.63 59.08 1149.92 58.56C1150.23 58.032 1150.38 57.544 1150.38 57.096C1150.38 56.616 1150.24 56.24 1149.95 55.968C1149.66 55.688 1149.27 55.548 1148.78 55.548C1148.38 55.548 1148.01 55.632 1147.68 55.8C1147.35 55.968 1147 56.248 1146.61 56.64L1146.2 55.98C1146.58 55.548 1146.98 55.228 1147.42 55.02C1147.86 54.804 1148.34 54.696 1148.88 54.696C1149.66 54.696 1150.28 54.908 1150.75 55.332C1151.23 55.748 1151.47 56.316 1151.47 57.036C1151.47 57.62 1151.3 58.216 1150.94 58.824C1150.6 59.432 1150.01 60.132 1149.18 60.924L1147.92 62.136V62.16H1151.86V63H1146.36V62.364ZM1155.69 63.168C1155.05 63.168 1154.5 62.98 1154.06 62.604C1153.63 62.22 1153.31 61.704 1153.09 61.056C1152.88 60.4 1152.78 59.664 1152.78 58.848C1152.78 58.056 1152.88 57.348 1153.09 56.724C1153.31 56.1 1153.63 55.604 1154.06 55.236C1154.5 54.868 1155.05 54.684 1155.69 54.684C1156.66 54.684 1157.39 55.072 1157.88 55.848C1158.37 56.624 1158.61 57.624 1158.61 58.848C1158.61 59.664 1158.5 60.4 1158.29 61.056C1158.08 61.704 1157.75 62.22 1157.31 62.604C1156.88 62.98 1156.34 63.168 1155.69 63.168ZM1155.69 62.328C1156.32 62.328 1156.77 62 1157.06 61.344C1157.36 60.688 1157.51 59.856 1157.51 58.848C1157.51 57.888 1157.36 57.096 1157.06 56.472C1156.77 55.84 1156.32 55.524 1155.69 55.524C1155.07 55.524 1154.61 55.84 1154.31 56.472C1154.03 57.096 1153.88 57.888 1153.88 58.848C1153.88 59.856 1154.03 60.688 1154.31 61.344C1154.61 62 1155.07 62.328 1155.69 62.328ZM1159.51 62.364L1161.57 60.36C1162.28 59.68 1162.78 59.08 1163.07 58.56C1163.38 58.032 1163.53 57.544 1163.53 57.096C1163.53 56.616 1163.38 56.24 1163.1 55.968C1162.81 55.688 1162.42 55.548 1161.93 55.548C1161.52 55.548 1161.16 55.632 1160.83 55.8C1160.5 55.968 1160.14 56.248 1159.76 56.64L1159.35 55.98C1159.73 55.548 1160.13 55.228 1160.56 55.02C1161 54.804 1161.49 54.696 1162.03 54.696C1162.8 54.696 1163.43 54.908 1163.9 55.332C1164.38 55.748 1164.62 56.316 1164.62 57.036C1164.62 57.62 1164.44 58.216 1164.09 58.824C1163.75 59.432 1163.16 60.132 1162.33 60.924L1161.07 62.136V62.16H1165V63H1159.51V62.364ZM1168.84 63.168C1168.19 63.168 1167.65 62.98 1167.21 62.604C1166.78 62.22 1166.45 61.704 1166.24 61.056C1166.03 60.4 1165.93 59.664 1165.93 58.848C1165.93 58.056 1166.03 57.348 1166.24 56.724C1166.45 56.1 1166.78 55.604 1167.21 55.236C1167.65 54.868 1168.19 54.684 1168.84 54.684C1169.81 54.684 1170.54 55.072 1171.03 55.848C1171.51 56.624 1171.76 57.624 1171.76 58.848C1171.76 59.664 1171.65 60.4 1171.43 61.056C1171.23 61.704 1170.9 62.22 1170.46 62.604C1170.03 62.98 1169.49 63.168 1168.84 63.168ZM1168.84 62.328C1169.47 62.328 1169.92 62 1170.21 61.344C1170.51 60.688 1170.65 59.856 1170.65 58.848C1170.65 57.888 1170.51 57.096 1170.21 56.472C1169.92 55.84 1169.47 55.524 1168.84 55.524C1168.22 55.524 1167.76 55.84 1167.46 56.472C1167.17 57.096 1167.03 57.888 1167.03 58.848C1167.03 59.856 1167.17 60.688 1167.46 61.344C1167.76 62 1168.22 62.328 1168.84 62.328ZM1179.56 59.688V63H1178.45V59.7L1175.44 54.84H1176.65L1179.02 58.824L1181.38 54.84H1182.58L1179.56 59.688ZM1186.55 62.388C1186.95 62.388 1187.31 62.3 1187.63 62.124C1187.95 61.948 1188.25 61.708 1188.55 61.404L1188.96 62.076C1188.64 62.436 1188.28 62.716 1187.88 62.916C1187.49 63.116 1187.04 63.216 1186.53 63.216C1185.86 63.216 1185.29 63.064 1184.83 62.76C1184.37 62.448 1184.03 62.036 1183.8 61.524C1183.57 61.004 1183.46 60.432 1183.46 59.808C1183.46 59.168 1183.57 58.588 1183.8 58.068C1184.03 57.548 1184.38 57.136 1184.84 56.832C1185.31 56.528 1185.87 56.376 1186.53 56.376C1187 56.376 1187.41 56.472 1187.78 56.664C1188.16 56.848 1188.45 57.12 1188.66 57.48C1188.87 57.84 1188.97 58.264 1188.97 58.752C1188.97 58.936 1188.94 59.176 1188.89 59.472H1184.55C1184.55 59.544 1184.54 59.648 1184.54 59.784C1184.54 60.576 1184.71 61.208 1185.05 61.68C1185.39 62.152 1185.89 62.388 1186.55 62.388ZM1186.5 57.168C1186.03 57.168 1185.63 57.304 1185.32 57.576C1185.02 57.848 1184.8 58.22 1184.67 58.692H1187.91V58.596C1187.91 58.132 1187.77 57.78 1187.49 57.54C1187.22 57.292 1186.89 57.168 1186.5 57.168ZM1190.69 53.4H1191.76V63H1190.69V53.4ZM1194.03 53.4H1195.1V63H1194.03V53.4ZM1199.89 63.216C1199.22 63.216 1198.65 63.064 1198.19 62.76C1197.73 62.456 1197.38 62.048 1197.15 61.536C1196.92 61.016 1196.81 60.44 1196.81 59.808C1196.81 59.168 1196.92 58.588 1197.15 58.068C1197.38 57.548 1197.73 57.136 1198.19 56.832C1198.65 56.528 1199.22 56.376 1199.89 56.376C1200.56 56.376 1201.12 56.532 1201.59 56.844C1202.05 57.156 1202.39 57.572 1202.62 58.092C1202.85 58.604 1202.97 59.168 1202.97 59.784C1202.97 60.408 1202.85 60.98 1202.62 61.5C1202.39 62.02 1202.05 62.436 1201.59 62.748C1201.12 63.06 1200.56 63.216 1199.89 63.216ZM1199.88 62.388C1200.52 62.388 1201.01 62.156 1201.36 61.692C1201.7 61.22 1201.87 60.588 1201.87 59.796C1201.87 59.012 1201.7 58.384 1201.36 57.912C1201.01 57.44 1200.52 57.204 1199.88 57.204C1199.24 57.204 1198.75 57.44 1198.41 57.912C1198.07 58.384 1197.9 59.012 1197.9 59.796C1197.9 60.588 1198.07 61.22 1198.41 61.692C1198.75 62.156 1199.24 62.388 1199.88 62.388ZM1213.05 56.592L1211.04 63.096H1210.06L1208.4 57.924L1206.74 63.096H1205.77L1203.74 56.592H1204.84L1206.27 61.764L1207.93 56.592H1208.89L1210.57 61.788L1211.97 56.592H1213.05ZM1217.38 53.4H1218.45V63H1217.38V53.4ZM1222.73 63H1221.49L1218.69 59.616V59.376L1221.11 56.592H1222.27L1219.73 59.472L1222.73 63ZM1224.72 54.612C1224.53 54.612 1224.37 54.548 1224.24 54.42C1224.1 54.284 1224.03 54.124 1224.03 53.94C1224.03 53.748 1224.1 53.584 1224.24 53.448C1224.37 53.312 1224.53 53.244 1224.72 53.244C1224.91 53.244 1225.07 53.312 1225.21 53.448C1225.34 53.584 1225.41 53.748 1225.41 53.94C1225.41 54.124 1225.34 54.284 1225.21 54.42C1225.07 54.548 1224.91 54.612 1224.72 54.612ZM1224.19 56.592H1225.26V63H1224.19V56.592ZM1231.2 62.76C1230.78 63.024 1230.33 63.156 1229.85 63.156C1229.16 63.156 1228.66 62.972 1228.33 62.604C1228 62.228 1227.84 61.692 1227.84 60.996V57.396H1226.82V56.94L1227.93 56.628L1228.26 55.08H1228.9V56.592H1230.82V57.396H1228.9V60.828C1228.9 61.348 1228.99 61.728 1229.16 61.968C1229.32 62.2 1229.6 62.316 1229.97 62.316C1230.16 62.308 1230.32 62.28 1230.48 62.232C1230.64 62.184 1230.81 62.108 1231 62.004L1231.2 62.76ZM1235.25 63.216C1234.58 63.216 1234.01 63.064 1233.55 62.76C1233.08 62.448 1232.73 62.036 1232.5 61.524C1232.28 61.012 1232.17 60.44 1232.17 59.808C1232.17 59.184 1232.28 58.612 1232.51 58.092C1232.75 57.572 1233.11 57.156 1233.59 56.844C1234.07 56.532 1234.67 56.376 1235.38 56.376C1235.77 56.376 1236.15 56.444 1236.51 56.58C1236.87 56.708 1237.17 56.892 1237.4 57.132L1237 57.888C1236.8 57.68 1236.56 57.516 1236.27 57.396C1235.98 57.268 1235.69 57.204 1235.38 57.204C1234.71 57.204 1234.19 57.444 1233.81 57.924C1233.44 58.396 1233.26 59.02 1233.26 59.796C1233.26 60.58 1233.43 61.208 1233.77 61.68C1234.13 62.152 1234.62 62.388 1235.25 62.388C1235.64 62.388 1235.99 62.308 1236.29 62.148C1236.6 61.98 1236.89 61.752 1237.16 61.464L1237.57 62.148C1237.29 62.46 1236.96 62.716 1236.56 62.916C1236.17 63.116 1235.73 63.216 1235.25 63.216ZM1242.24 56.376C1242.95 56.376 1243.44 56.56 1243.7 56.928C1243.97 57.296 1244.1 57.832 1244.1 58.536V63H1243.03V58.632C1243.03 58.128 1242.95 57.768 1242.79 57.552C1242.63 57.336 1242.36 57.228 1241.96 57.228C1241.67 57.228 1241.37 57.296 1241.06 57.432C1240.76 57.568 1240.43 57.776 1240.07 58.056V63H1239V53.4H1240.07V57.204C1240.82 56.652 1241.54 56.376 1242.24 56.376ZM1248.82 62.388C1249.22 62.388 1249.58 62.3 1249.9 62.124C1250.22 61.948 1250.53 61.708 1250.82 61.404L1251.23 62.076C1250.91 62.436 1250.55 62.716 1250.15 62.916C1249.76 63.116 1249.31 63.216 1248.81 63.216C1248.14 63.216 1247.57 63.064 1247.1 62.76C1246.65 62.448 1246.3 62.036 1246.07 61.524C1245.85 61.004 1245.74 60.432 1245.74 59.808C1245.74 59.168 1245.85 58.588 1246.07 58.068C1246.3 57.548 1246.65 57.136 1247.12 56.832C1247.58 56.528 1248.14 56.376 1248.81 56.376C1249.27 56.376 1249.69 56.472 1250.06 56.664C1250.43 56.848 1250.72 57.12 1250.93 57.48C1251.14 57.84 1251.24 58.264 1251.24 58.752C1251.24 58.936 1251.22 59.176 1251.16 59.472H1246.83C1246.82 59.544 1246.82 59.648 1246.82 59.784C1246.82 60.576 1246.98 61.208 1247.32 61.68C1247.66 62.152 1248.16 62.388 1248.82 62.388ZM1248.77 57.168C1248.3 57.168 1247.91 57.304 1247.6 57.576C1247.29 57.848 1247.08 58.22 1246.95 58.692H1250.19V58.596C1250.19 58.132 1250.05 57.78 1249.77 57.54C1249.5 57.292 1249.16 57.168 1248.77 57.168ZM1256.21 56.376C1256.91 56.376 1257.4 56.564 1257.66 56.94C1257.93 57.308 1258.07 57.84 1258.07 58.536V63H1257V58.632C1257 58.128 1256.92 57.768 1256.76 57.552C1256.6 57.336 1256.32 57.228 1255.93 57.228C1255.64 57.228 1255.34 57.296 1255.03 57.432C1254.73 57.568 1254.4 57.776 1254.04 58.056V63H1252.97V56.592H1253.8L1253.95 57.264C1254.73 56.672 1255.48 56.376 1256.21 56.376Z" fill="white"/>
<path fill-rule="evenodd" clip-rule="evenodd" d="M12.0001 51.1271C14.8919 51.1271 15.2313 51.1399 16.3743 51.1915C17.4313 51.2388 18.0028 51.4149 18.3853 51.5653C18.8923 51.763 19.2532 51.995 19.6313 52.3731C20.0095 52.7513 20.2458 53.1122 20.4392 53.6192C20.5853 54.0017 20.7657 54.5731 20.813 55.6302C20.8646 56.7731 20.8774 57.1126 20.8774 60.0044C20.8774 62.8962 20.8646 63.2356 20.813 64.3786C20.7657 65.4356 20.5896 66.0071 20.4392 66.3896C20.2415 66.8966 20.0095 67.2575 19.6313 67.6356C19.2532 68.0138 18.8923 68.2501 18.3853 68.4435C18.0028 68.5896 17.4313 68.77 16.3743 68.8173C15.2313 68.8688 14.8919 68.8817 12.0001 68.8817C9.1083 68.8817 8.76885 68.8688 7.62588 68.8173C6.56885 68.77 5.99736 68.5938 5.61494 68.4435C5.10791 68.2458 4.74697 68.0138 4.36885 67.6356C3.99072 67.2575 3.75439 66.8966 3.56104 66.3896C3.41494 66.0071 3.23447 65.4356 3.18721 64.3786C3.13564 63.2356 3.12275 62.8962 3.12275 60.0044C3.12275 57.1126 3.13564 56.7731 3.18721 55.6302C3.23447 54.5731 3.41064 54.0017 3.56104 53.6192C3.75869 53.1122 3.99072 52.7513 4.36885 52.3731C4.74697 51.995 5.10791 51.7587 5.61494 51.5653C5.99736 51.4192 6.56885 51.2388 7.62588 51.1915C8.76885 51.1356 9.1083 51.1271 12.0001 51.1271ZM12.0001 49.1763C9.06103 49.1763 8.6915 49.1892 7.53564 49.2407C6.38408 49.2923 5.59775 49.4771 4.91025 49.7435C4.19697 50.0185 3.59541 50.3923 2.99385 50.9938C2.39229 51.5954 2.02275 52.2013 1.74346 52.9103C1.47705 53.5978 1.29229 54.3841 1.24072 55.5399C1.18916 56.6915 1.17627 57.061 1.17627 60.0001C1.17627 62.9392 1.18916 63.3087 1.24072 64.4646C1.29229 65.6161 1.47705 66.4024 1.74346 67.0942C2.01846 67.8075 2.39229 68.4091 2.99385 69.0106C3.59541 69.6122 4.20127 69.9817 4.91025 70.261C5.59775 70.5274 6.38408 70.7122 7.53994 70.7638C8.6958 70.8153 9.06104 70.8282 12.0044 70.8282C14.9478 70.8282 15.313 70.8153 16.4688 70.7638C17.6204 70.7122 18.4067 70.5274 19.0985 70.261C19.8118 69.986 20.4134 69.6122 21.0149 69.0106C21.6165 68.4091 21.986 67.8032 22.2653 67.0942C22.5317 66.4067 22.7165 65.6204 22.7681 64.4646C22.8196 63.3087 22.8325 62.9435 22.8325 60.0001C22.8325 57.0567 22.8196 56.6915 22.7681 55.5356C22.7165 54.3841 22.5317 53.5978 22.2653 52.906C21.9903 52.1927 21.6165 51.5911 21.0149 50.9896C20.4134 50.388 19.8075 50.0185 19.0985 49.7392C18.411 49.4728 17.6247 49.288 16.4688 49.2364C15.3087 49.1892 14.9392 49.1763 12.0001 49.1763ZM12.0001 54.4399C8.93213 54.4399 6.43994 56.9278 6.43994 60.0001C6.43994 63.0724 8.93213 65.5603 12.0001 65.5603C15.0681 65.5603 17.5603 63.0681 17.5603 60.0001C17.5603 56.9321 15.0681 54.4399 12.0001 54.4399ZM12.0001 63.6095C10.0063 63.6095 8.39072 61.9938 8.39072 60.0001C8.39072 58.0063 10.0063 56.3907 12.0001 56.3907C13.9938 56.3907 15.6095 58.0063 15.6095 60.0001C15.6095 61.9938 13.9938 63.6095 12.0001 63.6095ZM19.0768 54.2208C19.0768 54.9375 18.4958 55.5185 17.7791 55.5185C17.0624 55.5185 16.4814 54.9375 16.4814 54.2208C16.4814 53.5041 17.0624 52.9232 17.7791 52.9232C18.4958 52.9232 19.0768 53.5041 19.0768 54.2208Z" fill="#D4D7E6"/>
<path d="M119 60C119 53.9303 114.07 49 108 49C101.93 49 97 53.9303 97 60C97 65.4944 101.028 70.041 106.285 70.8646V63.1703H103.476V59.9887H106.285V57.5631C106.285 54.8103 107.921 53.2759 110.426 53.2759C111.633 53.2759 112.874 53.5128 112.874 53.5128V56.1979H111.497C110.132 56.1979 109.692 57.0554 109.692 57.9241V59.9887H112.75L112.265 63.1703H109.704V70.8646C114.972 70.041 119 65.4944 119 60Z" fill="#D4D7E6"/>
<path d="M70 53.1297C69.2639 53.4911 68.4741 53.7362 67.6442 53.8456C68.4915 53.2834 69.1402 52.3916 69.4476 51.3323C68.6527 51.853 67.7754 52.231 66.8406 52.436C66.092 51.5511 65.0271 51 63.8461 51C61.5803 51 59.7431 53.0355 59.7431 55.5447C59.7431 55.9005 59.7794 56.2481 59.8494 56.5804C56.44 56.3907 53.4168 54.5809 51.3935 51.8308C51.0398 52.501 50.8386 53.282 50.8386 54.1156C50.8386 55.6928 51.5634 57.0845 52.6632 57.8986C51.9909 57.8737 51.3585 57.6688 50.8048 57.3281V57.3849C50.8048 59.5866 52.2196 61.4241 54.0955 61.8423C53.7518 61.9448 53.3894 62.0016 53.0144 62.0016C52.7495 62.0016 52.4933 61.9725 52.2421 61.9171C52.7644 63.7242 54.2792 65.0383 56.0739 65.0743C54.6704 66.2929 52.9007 67.0171 50.9786 67.0171C50.6474 67.0171 50.3212 66.9949 50 66.9548C51.8159 68.2467 53.9718 69 56.2888 69C63.8362 69 67.9617 62.0736 67.9617 56.0667L67.9479 55.4782C68.754 54.8412 69.4513 54.0408 70 53.1297Z" fill="#D4D7E6"/>
</svg>
